<svg version="1.1" xmlns="http://www.w3.org/2000/svg" viewBox="0 0 932.8449157498561 430.51472823934597" width="1865.6898314997122" height="861.0294564786919">
  <!-- svg-source:excalidraw -->
  
  <defs>
    <style type="text/css">
      @font-face {
        font-family: "Virgil";
        src: url("fonts/FG_Virgil.woff2") format("woff2");
      }
      @font-face {
        font-family: "Cascadia";
        src: url("fonts/Cascadia.woff2") format("woff2");
      }
    </style>
  </defs>
  <g><g transform="translate(77.84491574985611 363.7927320384886) rotate(0 340.27486847117547 0.05676811960529449)"><path d="M-0.4285335592925549 -0.14344061091542248 C113.15226318314673 -0.0038863249123096966, 567.4533308453858 0.03323761746287343, 680.9782705016435 -0.10461517050862312 M1.5473475927393885 -1.2643508769851177 C115.01254133614711 -0.8471628426294773, 566.9752106702606 1.194264154853299, 680.018817051379 1.3778871161956339" stroke="#000000" stroke-width="1" fill="none"></path></g><g transform="translate(77.84491574985611 363.7927320384886) rotate(0 340.27486847117547 0.05676811960529449)"><path d="M651.5555262997402 11.509917559008567 C658.9759971864625 8.56081852290807, 664.8087063345371 7.448866287250835, 679.1964984862785 3.2384311532694845 M651.9240729514165 11.62534062555012 C657.3407483916044 9.387376768107156, 664.9838997815747 6.202713516115057, 679.4657498198281 2.2695529269147663" stroke="#000000" stroke-width="1" fill="none"></path></g><g transform="translate(77.84491574985611 363.7927320384886) rotate(0 340.27486847117547 0.05676811960529449)"><path d="M651.6227174080753 -9.011181040744834 C658.8647865276611 -6.670368834551825, 664.6801744236622 -2.4921698808754904, 679.1964984862785 3.2384311532694845 M651.9912640597516 -8.895757974203281 C657.3217308537489 -6.6996972477417565, 664.9503648871898 -5.450557990292752, 679.4657498198281 2.2695529269147663" stroke="#000000" stroke-width="1" fill="none"></path></g></g><g><g transform="translate(77.84491574985611 362.7927320384886) rotate(0 -0.6236180129740205 -176.1182914473815)"><path d="M-1.114695031195879 0.5561491437256336 C-1.291204435378313 -57.82930014654994, -0.8019923277199268 -292.2716513685882, -0.5246832199394703 -350.7837096981704 M0.5009513480868191 -0.19747650115750726 C0.07375321789644662 -58.92841892062687, -1.6766571687255056 -294.0581915488746, -1.7481873740348965 -352.7927320384886" stroke="#000000" stroke-width="1" fill="none"></path></g><g transform="translate(77.84491574985611 362.7927320384886) rotate(0 -0.6236180129740205 -176.1182914473815)"><path d="M9.57452783828323 -325.5260004207391 C5.536877527930201 -333.52835011110596, 2.4010492308018945 -345.68988066212756, -1.7438596484158189 -351.8890886799898 M8.007418415525008 -325.4649463828552 C5.139572180728791 -332.86948399571736, 2.0351746160034914 -341.72148597069867, -1.709980981135741 -352.53194040334785" stroke="#000000" stroke-width="1" fill="none"></path></g><g transform="translate(77.84491574985611 362.7927320384886) rotate(0 -0.6236180129740205 -176.1182914473815)"><path d="M-10.946444362087986 -325.4274999769271 C-7.913594912664012 -333.27316425236785, -3.9793100757133057 -345.46863126968873, -1.7438596484158189 -351.8890886799898 M-12.513553784846208 -325.3664459390432 C-9.462612423897584 -332.75961687067087, -6.648188972266482 -341.64002912228347, -1.709980981135741 -352.53194040334785" stroke="#000000" stroke-width="1" fill="none"></path></g></g><g><g transform="translate(95.84491574985611 236.79273203848862) rotate(0 320.80878469027726 -75.77809349175705)"><path d="M0.7308583192527294 -0.7380713514983654 C2.044561419139306 -6.409070059905449, 6.536445340762536 -30.346956051637726, 7.5577918224036695 -34.43094075247645 C8.579138304044804 -38.51492545331518, 6.584431395183008 -26.678789787739518, 6.8589372090995315 -25.241979556530715 C7.1334430230160555 -23.805169325321913, 8.204822692523399 -27.637142536292473, 9.204826705902814 -25.810079365223647 C10.20483071928223 -23.98301619415482, 11.592630626012882 -13.027051732192437, 12.85896128937602 -14.27960053011775 C14.12529195273916 -15.532149328043065, 14.852502005547287 -34.07569022700191, 16.80281068608165 -33.32537215277553 C18.753119366616012 -32.57505407854915, 22.72371905768911 -10.724032955616714, 24.560813372582196 -9.777692084759474 C26.397907687475282 -8.831351213902234, 27.10519942566752 -24.651856936266025, 27.825376575440167 -27.647326927632093 C28.545553725212812 -30.64279691899816, 28.88049616937836 -28.66940793717901, 28.88187627121806 -27.750512032955886 C28.883256373057762 -26.83161612873276, 27.24279776538412 -24.9090671432515, 27.833657186478376 -22.13395150229335 C28.424516607572635 -19.358835861335198, 30.91992810691396 -13.150351156045993, 32.42703279778361 -11.099818187206983 C33.93413748865326 -9.049285218367974, 36.0660131705304 -9.311578660458327, 36.87628533169627 -9.830753689259291 C37.68655749286215 -10.349928718060255, 36.28648101612926 -12.308203758050997, 37.288665764778855 -14.214868360012769 C38.29085051342845 -16.12153296197454, 41.62972845360637 -16.777815967053176, 42.889393823593856 -21.270741301029922 C44.149059193581344 -25.76366663500667, 43.4454543761909 -41.13847355569403, 44.84665798470378 -41.17242036387324 C46.24786159321666 -41.20636717205246, 50.10965976044536 -24.947036875536043, 51.29661547467113 -21.474422150105237 C52.483571188896896 -18.001807424674432, 50.5829809995989 -16.590835028141736, 51.968392270058395 -20.336732011288404 C53.35380354051789 -24.082628994435073, 57.4690232368807 -42.3126658650736, 59.60908309742808 -43.94980404898524 C61.749142957975465 -45.58694223289689, 62.63936036551992 -30.602462654560806, 64.80875143334269 -30.159561114758255 C66.97814250116546 -29.716659574955703, 70.9252016954124 -41.95562741483251, 72.62542950436473 -41.29239481016994 C74.32565731331707 -40.62916220550736, 73.94239195312063 -29.998030914117894, 75.01011828705668 -26.18016548678279 C76.07784462099274 -22.362300059447687, 77.71641128187379 -17.911012670646112, 79.03178750798106 -18.385202246159317 C80.34716373408834 -18.85939182167252, 82.57404190823436 -29.423047619313003, 82.90237564370037 -29.025302939862012 C83.23070937916637 -28.62755826041102, 80.30170147543153 -21.534746111681063, 81.00178992077709 -15.998734169453382 C81.70187836612264 -10.4627222272257, 85.7704430433611 0.35614608402053527, 87.10290631577372 4.190768713504076 C88.43536958818635 8.025391342987616, 87.16095508858561 11.696414449562628, 88.99656955525279 7.009001607447862 C90.83218402191997 2.3215887653330958, 96.32189483766754 -20.74762428328395, 98.11659311577678 -23.933708339184523 C99.91129139388602 -27.119792395085096, 99.32822160050273 -15.081788799415033, 99.76475922390819 -12.10750272795558 C100.20129684731364 -9.133216656496128, 99.73953010365368 -7.80903320039312, 100.73581885620952 -6.087991910427808 C101.73210760876536 -4.366950620462497, 104.15838382368285 0.04555299555261905, 105.74249173924326 -1.7812549881637096 C107.32659965480367 -3.608062971880038, 109.28864832048615 -13.290255146473644, 110.24046634957195 -17.04883981272578 C111.19228437865775 -20.807424478977918, 110.79382457062601 -24.560817978034418, 111.45339991375803 -24.332762985676528 C112.11297525689005 -24.104707993318637, 113.62204896733165 -17.40763126735886, 114.19791840836406 -15.680509858578443 C114.77378784939647 -13.953388449798027, 113.89775998716553 -10.560992866009473, 114.90861655995249 -13.970034532994031 C115.91947313273945 -17.37907619997859, 119.2466981900235 -33.931669375548765, 120.26305784508585 -36.134759860485794 C121.27941750014821 -38.33785034542282, 120.1875728858014 -29.902562814205886, 121.00677449032665 -27.188577442616225 C121.8259760948519 -24.474592071026564, 122.42372880106171 -16.187043950210015, 125.17826747223735 -19.85084763094783 C127.93280614341299 -23.514651311685643, 135.00147941236693 -43.75395230179032, 137.53400651738048 -49.17139952704311 C140.06653362239402 -54.58884675229589, 139.20177361294628 -51.552596137175954, 140.37343010231854 -52.35553098246455 C141.5450865916908 -53.15846582775315, 143.56519571269553 -55.83775247459611, 144.563945453614 -53.989008598774674 C145.56269519453247 -52.14026472295324, 145.6502987715105 -44.59466708227992, 146.36592854782938 -41.26306772753596 C147.08155832414826 -37.931468372792004, 147.69193793262045 -32.097387811789915, 148.8577241115272 -33.99941247031093 C150.02351029043396 -35.901437128831944, 152.15960375592113 -52.700431264688575, 153.36064562126995 -52.67521567866206 C154.56168748661878 -52.65000009263555, 154.84908888464173 -38.36378279253841, 156.0639753036201 -33.84811895415187 C157.2788617225985 -29.332455115765335, 159.60748804534475 -26.944563163568578, 160.64996413514018 -25.581232648342848 C161.6924402249356 -24.217902133117118, 161.8248647145927 -25.15536189600825, 162.31883184239268 -25.6681358627975 C162.81279897019266 -26.180909829586746, 163.0925844522814 -28.889237258086602, 163.6137669019401 -28.657876449078323 C164.1349493515988 -28.426515640070043, 164.39498156830666 -23.911382934699454, 165.44592654034494 -24.279971008747815 C166.49687151238322 -24.648559082796176, 168.4343591225644 -30.15079469407598, 169.91943673416972 -30.869404893368483 C171.40451434577506 -31.588015092660985, 171.32265559161704 -27.32527038777868, 174.35639220997692 -28.591632204502822 C177.3901288283368 -29.857994021226965, 185.13977820202706 -35.06640995070338, 188.121856444329 -38.46757579371333 C191.10393468663096 -41.86874163672328, 191.45860293035705 -47.011282067745924, 192.24886166378855 -48.998627262562515 C193.03912039722005 -50.985972457379106, 192.46997450316945 -51.9940908404688, 192.863408844918 -50.39164696261287 C193.25684318666657 -48.789203084756934, 192.64103973036012 -43.47117578710119, 194.6094677142799 -39.383963995426896 C196.57789569819968 -35.296752203752604, 202.60691417182485 -28.312678509205583, 204.6739767484367 -25.868376212567092 C206.74103932504855 -23.424073915928602, 206.19568213745953 -23.360876025011144, 207.01184317395092 -24.718150215595962 C207.82800421044232 -26.07542440618078, 208.85339668715994 -31.22184743608038, 209.57094296738507 -34.012021356076005 C210.2884892476102 -36.80219527607163, 210.66907963082195 -41.65714059397578, 211.31712085530162 -41.45919373556971 C211.9651620797813 -41.26124687716364, 212.46638819500805 -35.075438766926524, 213.4591903142631 -32.8243402056396 C214.45199243351817 -30.573241644352674, 216.36194835628072 -28.990893973161775, 217.273933570832 -27.952602367848158 C218.1859187853833 -26.91431076253454, 218.4903548412025 -25.4481269809107, 218.93110160157084 -26.594590573757888 C219.3718483619392 -27.741054166605075, 219.59583779300252 -33.94722730840246, 219.9184141330421 -34.83138392493129 C220.24099047308167 -35.715540541460115, 220.6239294382433 -33.13541989053289, 220.86655964180827 -31.89953027293086 C221.10918984537324 -30.66364065532883, 221.01313075348733 -27.932065078864497, 221.37419535443186 -27.416046219319107 C221.7352599553764 -26.900027359773716, 219.7865781319638 -25.020325308293106, 223.0329472474754 -28.803417115658522 C226.27931636298698 -32.58650892302394, 235.77704338356853 -39.63883176371455, 240.85241004750134 -50.11459706351161 C245.92777671143415 -60.59036236330867, 250.81860040153066 -76.57335104669134, 253.48514723107218 -91.65800891444087 C256.1516940606137 -106.7426667821904, 256.2049584957461 -129.48178517545261, 256.8516910247505 -140.6225442700088 C257.4984235537549 -151.763303364565, 255.2144623927772 -162.98583825156092, 257.36554240509867 -158.5025634817779 C259.51662241742014 -154.0192887119949, 267.16842556918664 -124.6293497932454, 269.7581710986793 -113.72289565131068 C272.347916628172 -102.81644150937596, 270.5561302515368 -105.10329473540186, 272.90401558205485 -93.06383863016963 C275.2519009125729 -81.0243825249374, 281.0598274163902 -52.10411676292618, 283.84548308178785 -41.48615901991725 C286.6311387471855 -30.868201276908323, 288.77973679030936 -31.458728310714168, 289.61794957444073 -29.356092172116043 C290.4561623585721 -27.253456033517917, 288.3923801831901 -27.449510563661654, 288.874759786576 -28.870342188328504 C289.35713938996196 -30.291173812995353, 291.60891482159496 -34.20598012333115, 292.5122271947563 -37.88108192011714 C293.4155395679176 -41.55618371690313, 294.26680001541973 -50.56312234128515, 294.2946340255439 -50.92095296904445 C294.3224680356681 -51.27878359680375, 292.5547971578936 -43.81972465241949, 292.6792312555015 -40.028065686672925 C292.80366535310947 -36.23640672092636, 293.137969725579 -26.56337657496333, 295.0412386111915 -28.170999174565075 C296.94450749680396 -29.778621774166822, 302.1826832783719 -45.69546971047918, 304.09884456917644 -49.6738012842834 C306.015005859981 -53.65213285808762, 305.54827212616806 -54.489531077196204, 306.5382063560188 -52.0409886173904 C307.52814058586955 -49.59244615758459, 308.64537266219656 -38.54955644334356, 310.038449948281 -34.98254652544856 C311.4315272343655 -31.415536607553562, 313.2942566963534 -31.768343660483758, 314.89667007252575 -30.6389291100204 C316.4990834486981 -29.50951455955704, 317.94983145520087 -27.052492663512627, 319.65293020531533 -28.206059222668408 C321.3560289554298 -29.35962578182419, 324.3599729153017 -35.514072137326, 325.11526257321236 -37.56032846495509 C325.87055223112304 -39.60658479258418, 323.2238591365516 -43.29561951681971, 324.18466815277935 -40.48359718844294 C325.1454771690071 -37.67157486006617, 329.2503035955131 -22.828474320222934, 330.88011667057873 -20.68819449469447 C332.50992974564434 -18.54791466916601, 333.54942185208205 -28.89111148243149, 333.96354660317303 -27.64191823527217 C334.377671354264 -26.392724988112846, 332.6909648828208 -17.900808021674553, 333.3648651771247 -13.193035011738539 C334.03876547142863 -8.485262001802525, 335.8293190809588 0.261356960485379, 338.0069483689964 0.6047198243439198 C340.184577657034 0.9480826882024607, 344.46183958972495 -8.941164387514194, 346.43064090535046 -11.132857828587294 C348.39944222097597 -13.324551269660395, 349.3871836356819 -12.892055333902439, 349.8197562627494 -12.54544082209468 C350.25232888981697 -12.19882631028692, 348.1303105287254 -12.013801230241855, 349.02607666775583 -9.053170757740736 C349.9218428067863 -6.092540285239616, 352.8341483287513 2.47397715523839, 355.19435309693216 5.218342012912035 C357.554557865113 7.96270687058568, 361.7179271789888 7.429523637642463, 363.1873052768409 7.4130183883011345 C364.656683374693 7.396513138959806, 362.96884597266717 6.963946615407864, 364.0106216840446 5.119310516864061 C365.0523973954221 3.2746744183202585, 367.733739019682 -0.283780929694573, 369.4379595451057 -3.6547982029616835 C371.1421800705294 -7.025815476228794, 373.244076046596 -14.705154765894015, 374.2359448365867 -15.1067931227386 C375.2278136265775 -15.508431479583184, 374.40762886330486 -9.513806078086297, 375.38917228505017 -6.064628344029188 C376.37071570679547 -2.6154506099720796, 378.73347136303784 3.3628318654994165, 380.1252053670585 5.588273281604051 C381.5169393710792 7.813714697708686, 382.12364618902404 8.69185704663396, 383.7395763091743 7.2880201525986195 C385.3555064293246 5.88418325856328, 388.5981647344927 1.009898697088162, 389.82078608796 -2.8347480826079847 C391.04340744142735 -6.6793948623041315, 390.6533404760063 -13.70188270136714, 391.07530442997813 -15.779860525578261 C391.49726838395 -17.857838349789382, 390.5201223067939 -17.942795416961115, 392.35256981179117 -15.302615027874708 C394.18501731678845 -12.662434638788303, 399.7890945367515 -2.8176164679229263, 402.0699894599617 0.06122180894017215 C404.35088438317183 2.94006008580327, 404.4021435591082 3.705075044184923, 406.03793935105205 1.9704146333038808 C407.6737351429959 0.2357542224228386, 410.4107911837598 -6.265435398866732, 411.8847642116249 -10.346740656346082 C413.35873723949 -14.428045913825432, 413.9678613039354 -19.66699773197373, 414.8817775182426 -22.51741691157222 C415.79569373254975 -25.36783609117071, 416.2858132295311 -26.142930640031896, 417.36826149746776 -27.449255733937026 C418.45070976540444 -28.755580827842156, 420.4617416871091 -31.167021557937066, 421.37646712586286 -30.355367475003003 C422.2911925646166 -29.54371339206894, 421.4690434865654 -24.701860003918412, 422.85661412999036 -22.579331236332656 C424.2441847734153 -20.4568024687469, 428.0157508544624 -18.423837579538425, 429.70189098641276 -17.62019486948848 C431.38803111836313 -16.816552159438533, 431.636198100696 -16.04814796969295, 432.9734549216926 -17.757474976032974 C434.31071174268925 -19.466801982373, 436.7493549518287 -27.387120275944472, 437.72543191239237 -27.87615690752864 C438.701508872956 -28.365193539112806, 437.9838265510897 -23.041885683188838, 438.8299166850746 -20.691694765537978 C439.67600681905947 -18.341503847887118, 441.70285345837476 -13.894044126321873, 442.8019727163017 -13.775011401623487 C443.9010919742286 -13.655978676925102, 445.19597831691306 -19.963997623572745, 445.4246322326362 -19.977498417347668 C445.65328614835937 -19.990999211122592, 443.2373791866005 -13.202616943170627, 444.1738962106407 -13.856016164273024 C445.1104132346809 -14.509415385375421, 449.67753621066606 -23.582908270011348, 451.0437343768775 -23.89789374396205 C452.409932543089 -24.212879217912754, 451.6348982823392 -17.79167987232407, 452.37108520790935 -15.745929007977248 C453.1072721334795 -13.700178143630426, 454.6208830448488 -11.887875435004633, 455.4608559302986 -11.623388557881118 C456.30082881574833 -11.358901680757603, 456.0315435580909 -12.060907392948865, 457.4109225206077 -14.159007745236158 C458.7903014831245 -16.25710809752345, 462.7059016319613 -22.88899026438594, 463.7371297053993 -24.211990671604873 C464.7683577788373 -25.534991078823808, 463.48428115968903 -23.630807317545017, 463.59829096123576 -22.097010188549756 C463.7123007627825 -20.563213059554496, 463.7999747845034 -15.317177237321932, 464.42118851467967 -15.009207897633313 C465.04240224485596 -14.701238557944695, 466.7709105663002 -18.90938745861252, 467.3255733422935 -20.24919415041804 C467.88023611828686 -21.589000842223562, 467.6246519816418 -22.724194166312614, 467.74916517063974 -23.048048048466445 C467.87367835963767 -23.371901930620275, 467.59006459042433 -23.092155628651383, 468.07265247628095 -22.192317443341018 C468.55524036213757 -21.292479258030653, 469.68898270254334 -18.482632197191318, 470.6446924857795 -17.64901893660426 C471.60040226901566 -16.815405676017203, 473.5612093778948 -16.795452973494925, 473.806911175698 -17.190637879818677 C474.05261297350125 -17.58582278614243, 472.15618309304114 -21.01924914245804, 472.11890327259897 -20.020128374546765 C472.0816234521568 -19.02100760663549, 472.55797774121163 -11.623120638976493, 473.58323225304486 -11.195913272351026 C474.6084867648781 -10.76870590572556, 477.34363596563537 -18.114969481279452, 478.27043034359815 -17.45688417479396 C479.19722472156093 -16.798798868308467, 478.5415024928749 -9.399833104262749, 479.14399852082136 -7.247401433438062 C479.7464945487678 -5.094969762613376, 481.3228907994926 -4.738217692822218, 481.885406511277 -4.542294149845839 C482.44792222306137 -4.34637060686946, 480.2604164453844 -1.5710981818536922, 482.5190927915275 -6.071860175579786 C484.7777691376706 -10.57262216930588, 493.05299707377947 -27.51158492291967, 495.43746458813547 -31.546866112202405 C497.8219321024915 -35.58214730148514, 496.417519077907 -30.73659035091599, 496.82589787766335 -30.283547311276198 C497.2342766774197 -29.830504271636407, 497.28050426766276 -28.845162317405148, 497.8877373866737 -28.828607874363662 C498.4949705056846 -28.812053431322177, 499.86977653627594 -29.31681742394964, 500.46929659172895 -30.184220653027296 C501.06881664718196 -31.051623882104952, 500.6727951936424 -32.76987435544531, 501.4848577193916 -34.033027248829605 C502.29692024514077 -35.2961801422139, 504.42832163299124 -36.51978721345465, 505.34167174622416 -37.763138013333084 C506.2550218594571 -39.00648881321152, 506.35141933088505 -39.87081218287349, 506.9649583987892 -41.493132048100236 C507.5784974666933 -43.11545191332698, 507.9584538472196 -49.174340865264334, 509.0229061536491 -47.497057204693554 C510.08735846007863 -45.819773544122775, 511.092092825224 -36.620566945523024, 513.3516722373664 -31.429430084675552 C515.6112516495089 -26.23829322382808, 520.6129726581275 -17.39681952521205, 522.5803826265037 -16.350236039608717 C524.5477925948799 -15.303652554005383, 524.091365155826 -25.079229789227245, 525.1561320476234 -25.149929171055554 C526.2208989394207 -25.220628552883863, 527.7321775448819 -18.991064339131118, 528.968983977288 -16.774432330578566 C530.205790409694 -14.557800322026015, 531.2999524685243 -13.86105852648616, 532.57697064206 -11.850137119740248 C533.8539888155957 -9.839215712994337, 535.9772013199827 -5.848416452854872, 536.631093018502 -4.708903890103102 C537.2849847170214 -3.5693913273513314, 535.9894042424858 -2.434477636466424, 536.5003208331764 -5.013061743229628 C537.011237423867 -7.591645849992831, 538.7966767959297 -18.88105034554998, 539.6965925626457 -20.180408530682325 C540.5965083293618 -21.47976671581467, 540.3854366235436 -14.388744931668043, 541.8998154334724 -12.809210854023695 C543.4141942434013 -11.229676776379346, 547.4600701185565 -10.98864049638311, 548.7828654222191 -10.703204064816237 C550.1056607258816 -10.417767633249364, 548.2345990908642 -9.400618224591016, 549.8365872554481 -11.09659226462245 C551.438575420032 -12.792566304653883, 557.1910141003628 -19.625028051187595, 558.3947944097221 -20.879048305004837 C559.5985747190813 -22.133068558822078, 556.1376077902814 -19.534355327735348, 557.0592691116035 -18.620713787525894 C557.9809304329256 -17.70707224731644, 561.700641553849 -15.031554155796767, 563.9247623376548 -15.397199063748122 C566.1488831214606 -15.762843971699477, 569.1493455342948 -19.77504738693436, 570.4039938144385 -20.81458323523402 C571.6586420945823 -21.854119083533682, 571.1875852915148 -22.03705995604396, 571.4526520185173 -21.634414153546096 C571.7177187455197 -21.23176835104823, 571.6788618020714 -18.861952214688063, 571.9943941764534 -18.39870842024684 C572.3099265508354 -17.93546462580562, 571.8713114591936 -17.457886597762503, 573.3458462648093 -18.854951386898755 C574.820381070425 -20.252016176035006, 579.4893727394441 -24.121827623496454, 580.8416030101478 -26.781097155064344 C582.1938332808514 -29.440366686632235, 578.9587862027188 -29.797875226785738, 581.4592278890311 -34.8105685763061 C583.9596695753435 -39.82326192582647, 592.6315944922467 -56.03559809252619, 595.8442531280219 -56.857257252186535 C599.0569117637972 -57.67891641184688, 598.4111423345903 -45.41503365561366, 600.7351797036827 -39.74052353426814 C603.059217072775 -34.06601341292262, 607.7437432063123 -24.505021434277296, 609.7884773425758 -22.810196524113415 C611.8332114788393 -21.115371613949534, 612.1770126673083 -29.921536363412937, 613.0035845212639 -29.571574073284864 C613.8301563752194 -29.221611783156792, 612.7848683608075 -25.386022127916416, 614.7479084663094 -20.710422783344985 C616.7109485718112 -16.034823438773554, 623.0925300133724 -4.9837244960169, 624.7818251542747 -1.5179780058562755 C626.4711202951769 1.9477684843043488, 624.0348527682324 3.3113086807231102, 624.8836793117225 0.08405615761876084 C625.7325058552126 -3.143196365485589, 628.3479938519497 -18.855439199258882, 629.8747844152152 -20.881493144482373 C631.4015749784808 -22.907547089705865, 632.6944125744203 -14.443953487525384, 634.0444226913154 -12.072267513722181 C635.3944328082105 -9.700581539918979, 636.8878703288733 -6.178021618972222, 637.9748451165855 -6.65137730166316 C639.0618199042976 -7.1247329843540985, 640.1517639252047 -13.370233111828565, 640.566271417588 -14.91240160986781 M-0.34457979247905324 1.4888372436258943 C0.8882961460358152 -3.980068038494015, 5.31946027571025 -28.863031190525117, 6.902587065538391 -33.119759396305305 C8.485713855366532 -37.37648760208549, 8.711402161956453 -25.382906866660342, 9.154180946489795 -24.051531991055235 C9.596959731023137 -22.720157115450128, 9.199306105316305 -26.888323609918977, 9.559259772738441 -25.13151014267467 C9.919213440160577 -23.374696675430364, 10.411025601069754 -11.94321076193514, 11.31390295102261 -13.510651187589392 C12.216780300975467 -15.078091613243645, 12.69997729553841 -35.47596706538461, 14.976523872455582 -34.53615269660018 C17.253070449372753 -33.59633832781576, 22.930453486085558 -8.906439830651506, 24.973182412525638 -7.871764974882826 C27.01591133896572 -6.837090119114145, 26.782934621116148 -24.806237435828272, 27.232897431096063 -28.3281035619881 C27.68286024107598 -31.84996968814793, 27.45940180007679 -30.03570849338236, 27.672959272405134 -29.002961731841786 C27.886516744733477 -27.970214970301214, 27.71864927345576 -25.270921016822882, 28.51424226506613 -22.13162299274467 C29.3098352566765 -18.99232496866646, 31.211596942783025 -12.073974920700616, 32.44651722206734 -10.167173587372528 C33.68143750135166 -8.260372254044439, 35.05326952729685 -9.859981187274679, 35.92376394077204 -10.69081499277614 C36.79425835424723 -11.521648798277601, 36.54810906394385 -13.420707699845856, 37.66948370291851 -15.152176420381293 C38.79085834189318 -16.88364514091673, 41.50195407404564 -16.63489174275659, 42.65201177462004 -21.079627315988763 C43.80206947519444 -25.524362889220935, 42.93068539663218 -41.921885834724335, 44.5698299063649 -41.82058985977434 C46.208974416097625 -41.71929388482434, 51.46553868844174 -24.235303562174863, 52.486878833016384 -20.47185146628879 C53.50821897759103 -16.708399370402716, 49.67175025725427 -14.869998745908962, 50.69787077381275 -19.239877284457908 C51.72399129037124 -23.609755823006854, 56.01720289522471 -44.81237794110241, 58.64360193236731 -46.69112269758247 C61.27000096950991 -48.56986745406253, 64.07773837888303 -31.177379603972657, 66.45626499666832 -30.512345823338254 C68.83479161445362 -29.84731204270385, 71.66913663580081 -43.73211992511215, 72.91476163907907 -42.70092001377605 C74.16038664235734 -41.669720102439946, 73.38242824459138 -28.20620532948834, 73.93001501633786 -24.325146355321632 C74.47760178808434 -20.444087381154922, 74.62920693490965 -18.572044976443674, 76.20028226955793 -19.41456616877578 C77.77135760420622 -20.25708736110789, 82.2836087541189 -29.80182992636226, 83.3564670242276 -29.380273509314282 C84.4293252943363 -28.958717092266305, 82.2509579006241 -22.457845640669888, 82.63743189021014 -16.885227666487918 C83.02390587979617 -11.312609692305948, 84.42307922387185 0.09721551816599971, 85.67531096174382 4.0554343357775355 C86.92754269961578 8.013653153389072, 87.82361072435043 11.596608453302954, 90.15082231744192 6.8640852391812945 C92.47803391053341 2.131562025059635, 98.34664938692315 -21.420777166476473, 99.63858052029275 -24.33970494895242 C100.93051165366235 -27.258632731428367, 97.72539701416157 -13.857396073431396, 97.90240911765956 -10.649481455674394 C98.07942122115755 -7.441566837917392, 99.66080605967902 -6.887359900862599, 100.70065314128064 -5.092217242410406 C101.74050022288226 -3.2970745839582136, 102.68022546146375 1.9032503168874733, 104.14149160726927 0.12137449503876274 C105.6027577530748 -1.6605013268099478, 108.3160464752124 -11.473928355565295, 109.46825001611374 -15.78347217350267 C110.62045355701508 -20.093015991440044, 110.59434850766323 -25.609853254646683, 111.05471285267733 -25.73588841258548 C111.51507719769143 -25.86192357052428, 111.3102116165962 -18.69838861782414, 112.23043608619831 -16.539683121135457 C113.15066055580041 -14.380977624446773, 115.0396956774996 -9.393284750273452, 116.57605967028998 -12.78365543245338 C118.11242366308036 -16.174026114633307, 120.72515288357002 -34.175157191545395, 121.4486200429406 -36.881907214215026 C122.17208720231119 -39.58865723688466, 120.55720691237909 -31.748465882232413, 120.91686262651346 -29.02415556847118 C121.27651834064784 -26.299845254709947, 120.75673209254009 -17.575160997301964, 123.60655432774685 -20.53604533164762 C126.45637656295361 -23.496929665993278, 135.3934992370413 -41.554995446096484, 138.01579603775406 -46.78946157454513 C140.6380928384668 -52.023927702993774, 138.43815480991265 -50.65583737233343, 139.3403351320233 -51.94284210233949 C140.24251545413398 -53.22984683234555, 142.15753342622583 -56.37398265410525, 143.42887797041797 -54.511489954581485 C144.70022251461012 -52.64899725505772, 145.85330368542733 -44.30446740387939, 146.96840239717625 -40.76788590519689 C148.08350110892516 -37.23130440651439, 148.67061400467222 -31.24471380183163, 150.11947024091148 -33.29200096248649 C151.56832647715075 -35.33928812314135, 155.126738452157 -53.10150926251275, 155.6615398146119 -53.05160886912606 C156.19634117706678 -53.00170847573938, 152.67305591378673 -37.49131893484853, 153.32827841564082 -32.992598602166396 C153.98350091749492 -28.493878269484263, 157.8103625931746 -27.257264868806423, 159.59287482573652 -26.05928687303327 C161.37538705829843 -24.861308877260115, 163.55085117830896 -25.242771848728882, 164.02335181101225 -25.804730627527462 C164.49585244371553 -26.366689406326042, 162.07675667488635 -30.001879893333342, 162.42787862195632 -29.431039545824753 C162.7790005690263 -28.860199198316163, 164.89233557297848 -22.446223422378925, 166.13008349343204 -22.379688542475925 C167.3678314138856 -22.313153662572926, 168.37917834703188 -28.042010423333075, 169.8543661446776 -29.03183026640676 C171.32955394232334 -30.021650109480447, 172.27818862253488 -27.030334951371575, 174.9812102793064 -28.31860760091804 C177.6842319360779 -29.606880250464503, 183.20822900935076 -33.307489629378544, 186.07249608530662 -36.76146616368555 C188.9367631612625 -40.21544269799255, 191.02143360171777 -46.71194481461309, 192.16681273504162 -49.04246680676006 C193.31219186836546 -51.37298879890703, 192.68852047824922 -52.541327765375996, 192.9447708852496 -50.74459811656736 C193.20102129224998 -48.947868467758724, 191.8874375352667 -42.80273514100971, 193.7043151770439 -38.26208891390823 C195.52119281882108 -33.721442686806746, 201.98534165346683 -25.519712168565018, 203.84603673591278 -23.500720753958447 C205.70673181835872 -21.481729339351876, 203.59391119792124 -24.38589847613436, 204.86848567171953 -26.1481404262688 C206.1430601455178 -27.910382376403238, 210.74465851807656 -31.622007259518533, 211.49348357870244 -34.07417245476507 C212.24230863932831 -36.526337650011605, 208.92424244775435 -41.3328044488933, 209.36143603547475 -40.86113159774803 C209.79862962319515 -40.389458746602756, 212.87644747181793 -33.44408787547611, 214.1166451050248 -31.24413534789346 C215.35684273823165 -29.044182820310816, 216.33082955950562 -28.646333104859416, 216.80262183471584 -27.661416432252153 C217.27441410992606 -26.67649975964489, 216.3180286644306 -24.25500593701067, 216.94739875628613 -25.334635312249883 C217.57676884814165 -26.414264687489098, 220.0617478912479 -33.02087490627232, 220.578842385849 -34.13919268368743 C221.09593688045007 -35.25751046110255, 220.09073266232076 -32.84699044802847, 220.04996572389268 -32.04454197674058 C220.0091987854646 -31.242093505452697, 219.5907498843875 -30.05899739870491, 220.3342407552805 -29.324501855960115 C221.0777316261735 -28.59000631321532, 221.046567115228 -24.152114162435755, 224.51091094925067 -27.637568720271812 C227.97525478327336 -31.12302327810787, 236.10726506366396 -39.60811187773012, 241.12030375941657 -50.23722920297645 C246.13334245516918 -60.866346528222785, 252.00821675622524 -76.28229358413878, 254.5891431237664 -91.41227267174982 C257.1700694913076 -106.54225175936085, 255.77973337048357 -129.60380672225418, 256.6058619646635 -141.0171037286427 C257.4319905588435 -152.4304007350312, 257.3923767350521 -164.32262230037713, 259.5459146888461 -159.89205471008086 C261.6994526426401 -155.46148711978458, 267.4256051629192 -125.36318072785002, 269.5270896874275 -114.43369818686507 C271.6285742119358 -103.50421564588012, 269.48308595144806 -106.15470431505703, 272.154821835896 -94.31515946417116 C274.8265577203439 -82.47561461328529, 282.71800788237715 -54.20484310675723, 285.5575049941149 -43.39642908154987 C288.3970021058526 -32.588015056342506, 288.3183937218195 -31.899987382084753, 289.19180450632234 -29.464675312926992 C290.06521529082517 -27.029363243769232, 289.89574605359695 -27.16558015454871, 290.7979697011318 -28.78455666660331 C291.7001933486667 -30.403533178657913, 293.69369311257265 -35.54309633869988, 294.60514639153143 -39.17853438525461 C295.5165996704902 -42.81397243180933, 296.74996795131824 -50.15368858346405, 296.2666893748846 -50.59718494593166 C295.783410798451 -51.040681308399265, 292.1817209401137 -45.58183310547533, 291.7054749329295 -41.83951256006025 C291.22922892574536 -38.09719201464517, 290.9808322669473 -26.63564218907617, 293.4092133317795 -28.143261673441156 C295.8375943966117 -29.650881157806143, 304.07922443751556 -46.87717668631735, 306.27576132192274 -50.885229466250166 C308.4722982063299 -54.893282246182984, 305.6108414418902 -54.45609185029132, 306.5884346382227 -52.19157835303806 C307.56602783455514 -49.9270648557848, 310.75029458785116 -41.19328316846552, 312.14132049991747 -37.29814848273061 C313.5323464119838 -33.4030137969957, 314.0215083342201 -30.18453219601574, 314.9345901106205 -28.82077023862861 C315.8476718870209 -27.45700828124148, 316.30303279086013 -27.88081905582609, 317.6198111583199 -29.115576738407835 C318.9365895257797 -30.35033442098958, 321.6566895520097 -33.98530160515569, 322.8352603153791 -36.22931633411907 C324.0138310787485 -38.47333106308245, 323.4262175296154 -45.353627935638656, 324.69123573853636 -42.57966511218809 C325.9562539474573 -39.80570228873752, 328.8959187866654 -22.23758220661742, 330.42536956890484 -19.585539393415676 C331.9548203511443 -16.93349658021393, 333.14263770385645 -27.89873047847611, 333.86794043197295 -26.667408232977614 C334.59324316008946 -25.436085987479117, 334.0344068129267 -17.105399879307175, 334.7771859376039 -12.197605920424685 C335.51996506228113 -7.289811961542195, 336.5557592966563 2.2470088950886082, 338.32461518003606 2.7793555203173312 C340.09347106341585 3.3117021455460542, 343.26637482219996 -6.2409575854645425, 345.3903212378826 -9.003526169052348 C347.5142676535652 -11.766094752640154, 350.1897253744211 -14.229784652184074, 351.06829367413184 -13.796055981209502 C351.9468619738426 -13.36232731023493, 349.9283877558913 -9.66796870399577, 350.6617310361471 -6.401154143204913 C351.3950743164029 -3.134339582414056, 353.72602275355723 3.3643369591329253, 355.46835335566664 5.804831383535639 C357.21068395777604 8.245325807938352, 359.6860209720737 7.9150096361928926, 361.1157146488037 8.24181240321137 C362.5454083255337 8.568615170229847, 362.7034820004708 9.679644725133354, 364.0465154160466 7.765647985646501 C365.3895488316224 5.851651246159648, 367.45719357882007 0.1012432228618616, 369.17391514225864 -3.2421680337097496 C370.8906367056972 -6.585579290281361, 373.2049440982348 -11.503434108089035, 374.34684479667806 -12.294819553783164 C375.4887454951213 -13.086204999477292, 375.2355017675367 -10.960845906228448, 376.0253193329182 -7.9904807078745215 C376.81513689829967 -5.020115509520595, 377.5139271132555 2.8523506222261736, 379.0857501889672 5.527371636340394 C380.65757326467894 8.202392650454614, 383.36355214629634 9.772320536682383, 385.4562577871885 8.059645376810805 C387.5489634280807 6.346970216939226, 390.6612928619391 -0.7422613378272702, 391.64198403432033 -4.748679322889075 C392.62267520670156 -8.75509730795088, 391.12629507317206 -13.800522910645231, 391.34040482147594 -15.978862533560022 C391.5545145697798 -18.157202156474813, 391.1285802440252 -20.789707325488948, 392.9266425241437 -17.81871706037782 C394.72470480426216 -14.847726795266693, 400.14435798957015 -1.245485460450873, 402.1287785021868 1.8470790571067481 C404.1131990148034 4.93964357466437, 403.06800524258676 3.1743982386682186, 404.8331655998435 0.7366700449679047 C406.5983259571002 -1.7010581487324092, 410.8407120868967 -9.093520074974125, 412.71974064572714 -12.779290105095134 C414.5987692045576 -16.46506013521614, 415.46246092403 -19.22873614926202, 416.107336952826 -21.377950135758148 C416.75221298162205 -23.527164122254277, 415.9106723065581 -24.46042346645457, 416.58899681850335 -25.674574024071916 C417.26732133044857 -26.88872458168926, 418.72551743809447 -29.177745743185902, 420.1772840244975 -28.662853481462225 C421.62905061090055 -28.147961219738548, 423.39189733996056 -24.19350276379846, 425.2995963369217 -22.585220453729853 C427.2072953338828 -20.976938143661247, 430.55808868451976 -19.874442880343025, 431.6234780062642 -19.01315962105058 C432.6888673280086 -18.151876361758134, 430.5077229618436 -16.16157551257871, 431.6919322673883 -17.41752089797519 C432.876141572933 -18.67346628337167, 437.2884323130455 -26.2238169813063, 438.72873383953237 -26.548831933429465 C440.1690353660192 -26.87384688555263, 439.4671620302803 -21.444969675034905, 440.3337414263096 -19.36761061071418 C441.2003208223389 -17.290251546393456, 443.0254830567446 -14.130701216648642, 443.92821021570825 -14.084677547505125 C444.8309373746719 -14.038653878361607, 445.79157115334334 -19.27219029673996, 445.75010438009167 -19.091468595853076 C445.70863760684 -18.91074689496619, 442.54885273202325 -12.533105840276306, 443.6794095761981 -13.000347342183813 C444.809966420373 -13.46758884409132, 451.15798402243917 -21.386586173266792, 452.53344544514084 -21.89491760729812 C453.9089068678425 -22.403249041329445, 451.3188302386211 -17.72221818942887, 451.93217811240817 -16.050335946371778 C452.54552598619523 -14.378453703314687, 455.4257780789739 -12.169683183521654, 456.21353268786334 -11.86362414895557 C457.00128729675276 -11.557565114389485, 455.45971489294436 -12.402402684679254, 456.6587057657447 -14.21398173897527 C457.857696638545 -16.02556079327129, 462.4066745143539 -21.461184289744125, 463.40747792466544 -22.73309847473167 C464.408281334977 -24.005012659719213, 462.45648309473256 -23.24120082993371, 462.6635262276139 -21.845466848900543 C462.8705693604952 -20.449732867867375, 463.8547382699853 -14.358969537507122, 464.6497367219534 -14.358694588532671 C465.44473517392146 -14.358419639558221, 466.8347883270588 -20.47599787909848, 467.43351693942213 -21.843817155053838 C468.0322455517855 -23.211636431009197, 467.93304470394116 -22.399096055716896, 468.2421083961334 -22.565610244264825 C468.55117208832564 -22.732124432812753, 468.87096115632914 -23.884022836079822, 469.2878990925755 -22.842902286341413 C469.7048370288219 -21.801781736603004, 470.0870129242943 -17.23579805661303, 470.7437360136118 -16.318886945834382 C471.4004591029293 -15.401975835055733, 473.05200923228324 -16.91568178811731, 473.22823762848043 -17.341435621669515 C473.4044660246776 -17.767189455221718, 472.10107245578433 -20.11482016910178, 471.80110639079476 -18.873409947147593 C471.5011403258052 -17.631999725193406, 470.5089506213274 -10.101224572450542, 471.42844123854303 -9.892974289944394 C472.34793185575865 -9.684724007438247, 475.76866323981744 -17.783417438756054, 477.31805009408856 -17.623908252110706 C478.8674369483597 -17.464399065465358, 479.73014713986777 -11.274078109652425, 480.7247623641696 -8.935919170072303 C481.7193775884714 -6.597760230492181, 482.9922356344666 -4.423688661148772, 483.2857414398994 -3.594954614629969 C483.5792472453322 -2.7662205681111662, 480.37130435431067 0.6491535963707915, 482.4857971967664 -3.963514890959486 C484.6002900392221 -8.576183378289764, 493.37658374780483 -26.709243048519514, 495.9726984946337 -31.270965538611634 C498.5688132414625 -35.83268802870375, 497.772138247729 -31.91464387495381, 498.06248567773963 -31.333849831512197 C498.35283310775026 -30.753055788070583, 497.66884543790485 -27.818533563107874, 497.7147830746975 -27.786201277961954 C497.76072071149014 -27.753868992816034, 497.82637521986226 -30.261762027532484, 498.33811149849555 -31.139856120636686 C498.84984777712884 -32.01795021374089, 499.811835646173 -31.908190250486754, 500.78520074649714 -33.05476583658717 C501.7585658468213 -34.20134142268759, 502.94175208711687 -36.478336115271475, 504.1783021004405 -38.0193096372392 C505.4148521137641 -39.56028315920693, 507.0173797306822 -40.80635357289575, 508.2045008264389 -42.30060696839355 C509.3916219221956 -43.79486036389135, 510.2900160825656 -48.443678475410366, 511.3010286749806 -46.984830010226 C512.3120412673957 -45.52598154504163, 512.2463134661721 -38.66600774257444, 514.270576380929 -33.54751617728733 C516.294839295686 -28.429024612000212, 521.7102581892815 -17.566945195188744, 523.4466061635222 -16.273880618503316 C525.182954137763 -14.980816041817887, 523.8451497107155 -25.584980721762406, 524.6886642263737 -25.789128717174755 C525.5321787420319 -25.993276712587104, 527.2189131403373 -20.107136111846195, 528.5076932574716 -17.498768590977416 C529.7964733746059 -14.890401070108638, 531.439411739052 -11.972610889365896, 532.4213449291792 -10.138923591962083 C533.4032781193064 -8.30523629455827, 533.6030927521394 -7.073094812622294, 534.3992923982348 -6.496644806554541 C535.1954920443302 -5.920194800486788, 536.5102999092545 -4.459747040957835, 537.1985428057518 -6.680223555555568 C537.8867857022491 -8.9007000701533, 537.7272525910939 -19.046841968089964, 538.5287497772183 -19.819503894140944 C539.3302469633427 -20.592165820191923, 540.2080249960627 -13.025415055444464, 542.0075259224977 -11.316195111861452 C543.8070268489328 -9.60697516827844, 547.8965253069407 -9.470241998822118, 549.3257553358283 -9.564184232642875 C550.7549853647158 -9.658126466463631, 549.3484748575495 -9.88348456173204, 550.5829060958233 -11.87984851478599 C551.8173373340971 -13.876212467839942, 555.7300539660857 -20.571669742058344, 556.732342765471 -21.542367950966582 C557.7346315648563 -22.51306615987482, 555.1065477684544 -18.552668938726807, 556.5966388921347 -17.70403776823543 C558.086730015815 -16.855406597744054, 563.6943253849354 -15.779343785038217, 565.6728895075526 -16.450580928018315 C567.6514536301697 -17.121818070998415, 567.7561524201836 -20.909858648668354, 568.4680236278381 -21.73146062611602 C569.1798948354925 -22.55306260356369, 569.6531701298958 -21.77132646500133, 569.9441167534794 -21.380192792704328 C570.235063377063 -20.989059120407326, 569.6502079208102 -19.623454570462926, 570.2137033693399 -19.384658592334016 C570.7771988178696 -19.145862614205107, 571.8710958507068 -18.725523869187263, 573.3250894446578 -19.94741692393087 C574.7790830386089 -21.169309978674477, 577.2506437950736 -24.066701333016777, 578.9376649330463 -26.716016920795663 C580.624686071019 -29.36533250857455, 580.8799539471077 -30.589685834835592, 583.4472162724938 -35.843310450604186 C586.01447859788 -41.09693506637278, 591.3117333177136 -57.77435398190283, 594.3412388853635 -58.237764615407215 C597.3707444530135 -58.7011752489116, 599.0356062355048 -44.868072615852576, 601.6242496783939 -38.62377425163053 C604.212893121283 -32.37947588740848, 607.7000935134695 -22.059344646027313, 609.8730995426979 -20.771974430074916 C612.0461055719263 -19.48460421412252, 613.8212582823045 -31.151454882811134, 614.662285853764 -30.89955295591615 C615.5033134252236 -30.647651029021166, 613.1880184904144 -24.32611587096316, 614.9192649714555 -19.26056286870502 C616.6505114524966 -14.195009866446878, 623.2674594039128 -3.5571137229508407, 625.0497647400107 -0.5062349423673003 C626.8320700761086 2.54464383821624, 624.8234794399546 2.1793793810500457, 625.6130969880428 -0.9552901852037758 C626.402714536131 -4.089959751457597, 628.108769333403 -17.822173973511283, 629.7874700285402 -19.314252339890228 C631.4661707236774 -20.806330706269172, 633.9501246368296 -12.056988935560609, 635.685301158866 -9.907760383477434 C637.4204776809023 -7.75853183139426, 639.1537582205142 -5.493604221732045, 640.1985291607584 -6.41888102739118 C641.2433001010027 -7.344157833050315, 642.0739461057789 -13.924194616368041, 641.9539268003311 -15.459421217432245" stroke="#000000" stroke-width="1" fill="none"></path></g></g><g><g transform="translate(101.84491574985611 145.8154632765661) rotate(0 293.20604029653305 -5.131312172393393)"><path d="M-0.3503795675933361 1.713327388077795 C5.803193301214393 2.0695383813526402, 15.878235616009707 4.9532334267332185, 36.120571485928394 4.833196587739989 C56.362907355847085 4.71315974874676, 86.21544560350021 5.780888014232915, 121.10363565191878 0.993106354118421 C155.99182570033736 -3.7946753059960736, 218.16909078860846 -21.696369591833367, 245.44971177643978 -23.893493372946978 C272.7303327642711 -26.09061715406059, 275.0378411513393 -15.979198959958604, 284.7873615789068 -12.189636332563238 C294.53688200647434 -8.400073705167872, 288.3522979879076 -5.265642759892267, 303.9468343418448 -1.1561176085747784 C319.541370695782 2.9534075427427107, 364.35629387763345 10.594342372368345, 378.3545797025301 12.467514575341696 C392.35286552742673 14.340686778315046, 381.63723286162605 10.100420802021977, 387.93654929122476 10.082915609265324 C394.2358657208235 10.065410416508671, 395.81525529472526 17.06223854412806, 416.1504782801225 12.362483418801778 C436.48570126551977 7.662728293475495, 492.59803125935105 -12.888837251744754, 509.9478872036081 -18.115615142692377 C527.2977431478652 -23.34239303364, 515.7075260958404 -19.04318407470349, 520.2496139456649 -18.99818392688397 C524.7917017954894 -18.953183779064453, 530.0646821665208 -17.562175622348438, 537.2004143025551 -17.84561425577526 C544.3361464385895 -18.129052889202082, 556.9420189384253 -20.93624293825271, 563.0640067618707 -20.69881572744491 C569.185994585316 -20.461388516637108, 569.9825990100958 -16.710957098585016, 573.9323412432273 -16.42105099092846 C577.8820834763587 -16.131144883271904, 584.5497473404528 -18.351824694904924, 586.7624601606593 -18.959379081505574" stroke="#007d9c" stroke-width="4.5" fill="none" stroke-dasharray="12 8"></path></g></g><g transform="translate(705.8449157498561 109.79273203848862) rotate(0 108.5 18)"><text x="0" y="25" font-family="Virgil, Segoe UI Emoji" font-size="28px" fill="#007d9c" text-anchor="start" style="white-space: pre;" direction="ltr">smart threshold</text></g><g><g transform="translate(352.8449157498561 69.79273203848862) rotate(0 0.8851935950697793 9.291487542605296)"><path d="M-0.7363640137016774 -1.027305393666029 C-1.917369928707679 -1.0638286483784518, -6.311296096195777 -1.6071927996973199, -8.258657652884722 0.13643760159611706 C-10.206019209573666 1.880068002889554, -13.67030085598429 6.407380782316128, -12.420533353835344 9.434477014094591 C-11.170765851686397 12.461573245873055, -5.022256818165381 17.34113033885757, -0.760052639991045 18.299014992266894 C3.5021515381832913 19.256899645676217, 10.769253660490115 17.410112185031178, 13.152691715210675 15.181784934550524 C15.536129769931236 12.953457684069873, 15.691950306544701 7.266580552607775, 13.54057568833232 4.929051489382982 C11.389201070119938 2.59152242615819, 2.576521596560876 1.907320923358202, 0.24444400593638416 1.156610555201769 M1.0779061497654765 1.047755329320207 C-0.18114915943083676 1.1089251140846559, -7.015845415651178 -0.3473922313159954, -9.342498384276405 1.2204925936553628 C-11.669151352901633 2.788377418626721, -14.287064521073674 7.398503252674516, -12.882011661985889 10.455064279148356 C-11.476958802898103 13.511625305622196, -5.019490148484086 18.691042524684843, -0.9121812297496945 19.559858752498403 C3.195127688984697 20.428674980311964, 9.680375728647535 17.76346421183087, 11.76184185042046 15.667961646029726 C13.843307972193385 13.572459080228581, 13.36763595455947 9.52849587352015, 11.576615500887856 6.986843357691541 C9.785595047216242 4.445190841862932, 3.230977357865001 1.5313748347852378, 1.0157191283907743 0.41804655105806887" stroke="#f45f45" stroke-width="2" fill="none"></path></g></g><g transform="translate(383.8449157498561 40.79273203848862) rotate(0 51.5 18)"><text x="0" y="25" font-family="Virgil, Segoe UI Emoji" font-size="28px" fill="#f45f45" text-anchor="start" style="white-space: pre;" direction="ltr">Anomaly</text></g><g transform="translate(-94.15508425014383 165.79273203848862) rotate(270.39377922608685 122.99999999999997 18)"><text x="0" y="25" font-family="Virgil, Segoe UI Emoji" font-size="28px" fill="#000" text-anchor="start" style="white-space: pre;" direction="ltr">Network Statistic</text></g><g transform="translate(363.8460508163979 384.3432428216532) rotate(0.28937016344054733 34 18)"><text x="0" y="25" font-family="Virgil, Segoe UI Emoji" font-size="28px" fill="#000" text-anchor="start" style="white-space: pre;" direction="ltr">Time</text></g></svg>